<svg width="21" height="20" viewBox="0 0 21 20" fill="none" xmlns="http://www.w3.org/2000/svg">
<path d="M10.5003 10.8332C10.9606 10.8332 11.3337 10.4601 11.3337 9.99984C11.3337 9.5396 10.9606 9.1665 10.5003 9.1665C10.0401 9.1665 9.66699 9.5396 9.66699 9.99984C9.66699 10.4601 10.0401 10.8332 10.5003 10.8332Z" fill="#808080" stroke="#808080" stroke-width="2" stroke-linecap="round" stroke-linejoin="round"/>
<path d="M10.5003 5.00016C10.9606 5.00016 11.3337 4.62707 11.3337 4.16683C11.3337 3.70659 10.9606 3.3335 10.5003 3.3335C10.0401 3.3335 9.66699 3.70659 9.66699 4.16683C9.66699 4.62707 10.0401 5.00016 10.5003 5.00016Z" fill="#808080" stroke="#808080" stroke-width="2" stroke-linecap="round" stroke-linejoin="round"/>
<path d="M10.5003 16.6667C10.9606 16.6667 11.3337 16.2936 11.3337 15.8333C11.3337 15.3731 10.9606 15 10.5003 15C10.0401 15 9.66699 15.3731 9.66699 15.8333C9.66699 16.2936 10.0401 16.6667 10.5003 16.6667Z" fill="#808080" stroke="#808080" stroke-width="2" stroke-linecap="round" stroke-linejoin="round"/>
</svg>
