<svg width="21" height="22" viewBox="0 0 21 22" fill="none" xmlns="http://www.w3.org/2000/svg">
<g opacity="0.7">
<path d="M15.375 7.5835C15.375 6.22426 14.835 4.9207 13.8739 3.95957C12.9128 2.99845 11.6092 2.4585 10.25 2.4585C8.89077 2.4585 7.5872 2.99845 6.62608 3.95957C5.66495 4.9207 5.125 6.22426 5.125 7.5835C5.125 13.5627 2.5625 15.271 2.5625 15.271H17.9375C17.9375 15.271 15.375 13.5627 15.375 7.5835Z" stroke="black" stroke-width="2" stroke-linecap="round" stroke-linejoin="round"/>
<path d="M11.7279 18.6875C11.5777 18.9464 11.3622 19.1613 11.1028 19.3106C10.8435 19.46 10.5495 19.5386 10.2502 19.5386C9.95089 19.5386 9.65686 19.46 9.39752 19.3106C9.13818 19.1613 8.92263 18.9464 8.77246 18.6875" stroke="black" stroke-width="2" stroke-linecap="round" stroke-linejoin="round"/>
</g>
</svg>
