<svg width="19" height="24" viewBox="0 0 19 24" fill="none" xmlns="http://www.w3.org/2000/svg">
<path d="M9.59353 10.8784C11.276 10.8784 12.6646 9.51647 12.6646 7.80735C12.6646 6.09799 11.276 4.7627 9.59353 4.7627C7.91102 4.7627 6.52246 6.12479 6.52246 7.80716C6.52246 9.48967 7.91102 10.8784 9.59353 10.8784Z" fill="#58A65F"/>
<path d="M9.59389 23.2432C14.6413 23.2432 18.5937 21.2136 18.5937 18.5964C18.5937 16.9407 17.0182 15.4718 14.4008 14.644L14.9349 14.083C17.8458 11.0386 17.8458 6.098 14.9349 3.05354C13.4931 1.58486 11.5969 0.756836 9.59375 0.756836C7.59062 0.756836 5.69461 1.58467 4.25259 3.05354C1.3417 6.098 1.3417 11.0386 4.25259 14.083L4.78666 14.644C2.16954 15.4718 0.59375 16.9407 0.59375 18.5964C0.593936 21.1868 4.54635 23.2432 9.59361 23.2432H9.59389ZM5.2408 3.98833C6.4159 2.75977 7.96484 2.09213 9.59389 2.09213C11.2496 2.09213 12.7985 2.75977 13.947 3.98833C16.3773 6.52534 16.3773 10.6381 13.947 13.1751L9.59389 17.7151L5.2408 13.1751C2.81071 10.6381 2.81071 6.52539 5.2408 3.98833ZM5.85518 15.7389L9.11328 19.1306C9.24685 19.2641 9.40706 19.3442 9.59389 19.3442C9.78092 19.3442 9.94113 19.2641 10.0745 19.1306L13.3326 15.7389C15.6828 16.3264 17.2318 17.4747 17.2318 18.5965C17.2318 20.546 13.1992 21.9081 9.56719 21.9081C5.05386 21.9081 1.90262 20.1723 1.90262 18.5965C1.92926 17.4749 3.50487 16.3264 5.85503 15.7389H5.85518Z" fill="#58A65F"/>
</svg>
